<svg xmlns="http://www.w3.org/2000/svg" viewBox="0 0 60 60" fill="none">
  <rect width="60" height="60" rx="12" fill="#1a2e2c"/>
  <path fill="#7dd3c0" d="M30 14c-8.5 0-15.5 6.2-15.5 13.8 0 2.7.8 5.2 2.2 7.4l-2.3 8.4 8.6-2.3c2 1.2 4.4 1.9 7 1.9 8.5 0 15.5-6.2 15.5-13.8S38.5 14 30 14zm0 25.2c-1.9 0-3.7-.5-5.3-1.4l-.4-.2-4.9 1.3 1.3-4.8-.3-.4c-1-1.6-1.5-3.4-1.5-5.3 0-6.3 5.6-11.4 12.5-11.4s12.5 5.1 12.5 11.4S36.9 39.2 30 39.2z"/>
  <circle cx="23" cy="28" r="2" fill="#1a2e2c"/>
  <circle cx="30" cy="28" r="2" fill="#1a2e2c"/>
  <circle cx="37" cy="28" r="2" fill="#1a2e2c"/>
</svg>
